# xmcd CD database file
#
# Track frame offsets:
#	150
#	19985
#	38028
#	58036
#	80071
#	97994
#	117527
#	134936
#	155584
#	175948
#
# Disc length: 2591 seconds
#
# Revision: 0
# Processed by: cddbd v1.5PL3 Copyright (c) Steve Scherf et al.
# Submitted via: CDex 1.51
#
DISCID=8d0a1d0a
DTITLE=La Son Charanga - Descarga y tumbao
DYEAR=2004
DGENRE=Salsa
TTITLE0=Chupa piruli
TTITLE1=Vamonos pa'Senegal
TTITLE2=Se que sufriré
TTITLE3=Sabrosa descarga
TTITLE4=Sandra mora
TTITLE5=Espiritualmente
TTITLE6=Me voy pa'las villas
TTITLE7=Paila y tumba
TTITLE8=Al son de la charanga
TTITLE9=Buscando tumbao
EXTD=YEAR: 2004
EXTT0=
EXTT1=
EXTT2=
EXTT3=
EXTT4=
EXTT5=
EXTT6=
EXTT7=
EXTT8=
EXTT9=
PLAYORDER=
